<svg xmlns="http://www.w3.org/2000/svg" width="1200px" height="400px" viewBox="0 0 2400 800">
	<g fill-rule="evenodd" fill="red" stroke="black" stroke-width="3">
	 <path d="M 250,75 L 323,301 131,161 369,161 177,301 z" />
	 <!-- 外圆顺时针  内圆顺时针 -->	 
	 <path d="M 600,81 A 107,107 0 0,1 600,295 A 107,107 0 0,1 600,81 z 
	 	        M 600,139 A 49,49 0 0,1 600,237 A 49,49 0 0,1 600,139 z" />
	 <!-- 外圆顺时针  内圆逆时针 -->	 	        
	 <path d="M 950,81 A 107,107 0 0,1 950,295 A 107,107 0 0,1 950,81 z 
	 	        M 950,139 A 49,49 0 0,0 950,237 A 49,49 0 0,0 950,139 z" />
	</g>
</svg>